<svg width="144" height="115" viewBox="0 0 144 115" fill="none" xmlns="http://www.w3.org/2000/svg">
<rect x="134" y="105" width="10" height="10" rx="5" fill="#165DDB"/>
<rect x="116" y="91" width="13" height="13" rx="6.5" stroke="#165DDB" stroke-width="2"/>
<path d="M120.017 41.2364C120.018 44.8237 118.989 48.3359 117.054 51.3563C115.118 54.3766 112.357 56.7783 109.097 58.2764C107.791 55.9839 106.148 53.9007 104.222 52.0964C107.103 51.3117 109.553 49.415 111.035 46.8234C112.517 44.2319 112.908 41.1579 112.124 38.2777C111.339 35.3974 109.442 32.9468 106.851 31.4651C104.259 29.9833 101.185 29.5917 98.3048 30.3764C97.7865 30.5169 97.244 30.5444 96.7141 30.4571C96.1842 30.3698 95.6792 30.1697 95.2333 29.8703C94.7875 29.5709 94.4111 29.1793 94.1297 28.7218C93.8483 28.2644 93.6685 27.7519 93.6023 27.2189C93.072 22.9239 91.3142 18.8729 88.5397 15.5516C85.7652 12.2303 82.0918 9.77956 77.9597 8.49323C73.8276 7.2069 69.4122 7.13952 65.2428 8.29918C61.0734 9.45883 57.3269 11.7963 54.4523 15.0314C51.2476 14.8843 48.0365 15.1058 44.8823 15.6914C47.7585 10.395 52.1625 6.08712 57.5211 3.32856C62.8797 0.569991 68.9446 -0.511484 74.9264 0.224912C80.9082 0.961308 86.5298 3.48146 91.0594 7.45732C95.5889 11.4332 98.8166 16.6806 100.322 22.5164C102.86 22.3883 105.398 22.7775 107.781 23.6604C110.164 24.5433 112.343 25.9014 114.185 27.6522C116.027 29.403 117.494 31.51 118.496 33.8452C119.499 36.1804 120.016 38.6951 120.017 41.2364Z" fill="#165DDB"/>
<path d="M52.517 22.4863C60.8199 22.4847 68.832 25.5438 75.0211 31.0784C81.2102 36.613 85.142 44.2349 86.0645 52.4863H86.267C91.2398 52.4863 96.009 54.4618 99.5253 57.9781C103.042 61.4944 105.017 66.2635 105.017 71.2363C105.017 76.2091 103.042 80.9783 99.5253 84.4946C96.009 88.0109 91.2398 89.9863 86.267 89.9863H22.517C16.7072 89.9907 11.1209 87.7476 6.92744 83.7266C2.73399 79.7055 0.258489 74.2182 0.0191226 68.4133C-0.220244 62.6085 1.79508 56.936 5.64324 52.5833C9.4914 48.2307 14.8741 45.5353 20.6645 45.0613C22.9822 38.4631 27.2915 32.7473 32.9972 28.7035C38.703 24.6596 45.5236 22.4872 52.517 22.4863ZM78.767 56.2363C78.7715 49.8427 76.4423 43.6673 72.2167 38.8692C67.9911 34.071 62.1595 30.98 55.8167 30.1763C49.4738 29.3726 43.0556 30.9115 37.7668 34.5042C32.4781 38.0968 28.6823 43.4962 27.092 49.6888C26.8768 50.527 26.3784 51.2649 25.6813 51.7775C24.9841 52.2901 24.1312 52.5458 23.267 52.5013C21.2747 52.4129 19.2848 52.7226 17.4136 53.4124C15.5424 54.1021 13.8276 55.1581 12.3693 56.5185C10.9111 57.8789 9.73883 59.5164 8.92101 61.3353C8.10319 63.1542 7.65628 65.1179 7.60642 67.1115C7.55655 69.1051 7.90473 71.0887 8.63059 72.9462C9.35645 74.8037 10.4454 76.4977 11.8338 77.9294C13.2222 79.361 14.8821 80.5013 16.7165 81.2838C18.5508 82.0663 20.5228 82.4751 22.517 82.4863H86.267C87.8622 82.4826 89.4383 82.1398 90.8908 81.4805C92.3434 80.8211 93.6391 79.8605 94.692 78.6622C95.7449 77.4639 96.531 76.0554 96.998 74.5302C97.465 73.0049 97.6024 71.3978 97.4009 69.8154C97.1994 68.233 96.6637 66.7116 95.8294 65.352C94.995 63.9925 93.8811 62.8259 92.5615 61.9297C91.2419 61.0335 89.7468 60.4282 88.1754 60.1539C86.604 59.8796 84.9922 59.9427 83.447 60.3388C82.8885 60.4819 82.3045 60.4942 81.7405 60.3749C81.1764 60.2556 80.6475 60.0078 80.1947 59.6509C79.742 59.2939 79.3777 58.8373 79.1301 58.3167C78.8824 57.796 78.7582 57.2253 78.767 56.6488V56.2363Z" fill="white"/>
</svg>
